# File created by Blade
# Date/Time:  Wed Jan 21 16:02:01 2015
# Frame Rate: 120.000 fps
#------------------------------------------------------
:FULLY-SPECIFIED
:DEGREES
789
root 19.462995 32.669033 -17.723357 -171.628715 3.913430 -178.797322
Spine -20.668862 7.839883 -4.527690
Head 11.992550 -5.557893 -6.406765
LeftShoulder -12.935423 -29.919293 -4.797628
LeftArm -42.369658 -7.805880 -48.358406
LeftForeArm 0.080503 -0.000000 8.258637
LeftHand -1.562041 -0.000000 2.801353
LeftHandThumb1 -26.253704 0.000000 33.147579
RightShoulder -8.032497 18.029357 -47.807510
RightArm 45.054864 47.921955 -5.954812
RightForeArm -42.118675 0.000000 8.787544
RightHand -0.388419 -0.000000 -17.239302
RightHandThumb1 -24.326973 -0.000000 -32.862282
LeftUpLeg 12.109648 2.285127 -18.348376
LeftLeg -1.389215 -0.000000 0.000000
LeftFoot -34.317238 19.191237 -15.432356
LeftToeBase 18.142280 -0.000000 -0.000000
RightUpLeg -18.629465 12.314401 20.817772
RightLeg -3.595737 -0.000000 0.000000
RightFoot -1.642026 -32.829600 -2.582126
RightToeBase 14.962141 -0.000000 -0.000000
790
root 19.459247 32.669184 -17.716072 -171.648296 3.912864 -178.815035
Spine -20.618829 7.860809 -4.494444
Head 12.005833 -5.530648 -6.441191
LeftShoulder -12.951103 -29.896447 -4.806061
LeftArm -42.334808 -7.853485 -48.384315
LeftForeArm 0.186475 -0.000000 8.238691
LeftHand -1.580357 0.000000 2.741008
LeftHandThumb1 -26.253704 0.000000 33.147579
RightShoulder -7.995423 18.042764 -47.802194
RightArm 45.174076 47.881510 -5.941225
RightForeArm -42.082349 0.000000 8.753396
RightHand -0.467222 -0.000000 -17.209083
RightHandThumb1 -24.326973 -0.000000 -32.862282
LeftUpLeg 12.111920 2.279607 -18.371391
LeftLeg -1.383049 -0.000000 0.000000
LeftFoot -34.326477 19.202275 -15.440761
LeftToeBase 18.163865 -0.000000 -0.000000
RightUpLeg -18.627982 12.307829 20.798340
RightLeg -3.589189 -0.000000 0.000000
RightFoot -1.570383 -32.826102 -2.649905
RightToeBase 14.811662 -0.000000 -0.000000
791
root 19.455730 32.669348 -17.708656 -171.662955 3.904379 -178.828145
Spine -20.569172 7.865609 -4.448897
Head 12.009251 -5.461984 -6.444503
LeftShoulder -12.975329 -29.872703 -4.809157
LeftArm -42.306587 -7.850529 -48.460623
LeftForeArm 0.162940 0.000000 8.224533
LeftHand -1.583461 -0.000000 2.775545
LeftHandThumb1 -26.253704 0.000000 33.147579
RightShoulder -7.996893 18.047741 -47.834671
RightArm 45.406685 47.946614 -5.717233
RightForeArm -42.127674 0.000000 8.761726
RightHand -0.442718 -0.000000 -17.169815
RightHandThumb1 -24.326973 -0.000000 -32.862282
LeftUpLeg 12.110214 2.285012 -18.385520
LeftLeg -1.373339 -0.000000 0.000000
LeftFoot -34.317685 19.190463 -15.424323
LeftToeBase 18.145977 -0.000000 -0.000000
RightUpLeg -18.630427 12.293657 20.784463
RightLeg -3.591251 -0.000000 0.000000
RightFoot -1.555338 -32.817817 -2.648581
RightToeBase 14.595190 -0.000000 -0.000000
792
root 19.452507 32.669449 -17.701503 -171.670771 3.888853 -178.832884
Spine -20.536410 7.875967 -4.392747
Head 12.022438 -5.424868 -6.464004
LeftShoulder -12.968379 -29.860353 -4.819574
LeftArm -42.323666 -7.788655 -48.577886
LeftForeArm 0.101243 -0.000000 8.253753
LeftHand -1.650289 0.000000 2.826151
LeftHandThumb1 -26.253704 0.000000 33.147579
RightShoulder -7.970016 18.058971 -47.840422
RightArm 45.428330 47.854333 -5.779663
RightForeArm -42.078796 -0.000000 8.792640
RightHand -0.423205 -0.000000 -17.047537
RightHandThumb1 -24.326973 -0.000000 -32.862282
LeftUpLeg 12.111497 2.285279 -18.390759
LeftLeg -1.380267 -0.000000 0.000000
LeftFoot -34.309220 19.200649 -15.379626
LeftToeBase 18.179516 -0.000000 -0.000000
RightUpLeg -18.638767 12.272280 20.777344
RightLeg -3.595955 -0.000000 0.000000
RightFoot -1.616303 -32.849627 -2.599308
RightToeBase 14.977752 -0.000000 -0.000000
793
root 19.448904 32.669994 -17.694072 -171.669825 3.871815 -178.849647
Spine -20.513005 7.875220 -4.355700
Head 12.028874 -5.383420 -6.468953
LeftShoulder -12.985968 -29.833763 -4.820615
LeftArm -42.306853 -7.795218 -48.623203
LeftForeArm 0.159395 0.000000 8.249202
LeftHand -1.733123 0.000000 2.824204
LeftHandThumb1 -26.253704 0.000000 33.147579
RightShoulder -7.957670 18.085455 -47.840174
RightArm 45.513916 47.765090 -5.784871
RightForeArm -42.081669 -0.000000 8.796653
RightHand -0.467352 0.000000 -17.046572
RightHandThumb1 -24.326973 -0.000000 -32.862282
LeftUpLeg 12.100373 2.274073 -18.408775
LeftLeg -1.378541 -0.000000 0.000000
LeftFoot -34.292115 19.202305 -15.360215
LeftToeBase 18.188449 -0.000000 -0.000000
RightUpLeg -18.657531 12.270190 20.751754
RightLeg -3.598682 -0.000000 0.000000
RightFoot -1.600178 -32.870344 -2.614056
RightToeBase 14.892015 -0.000000 -0.000000
794
root 19.444761 32.670646 -17.685717 -171.660745 3.846143 -178.872244
Spine -20.497238 7.866585 -4.322110
Head 12.028256 -5.349016 -6.485618
LeftShoulder -12.998564 -29.826783 -4.834088
LeftArm -42.311246 -7.755635 -48.678908
LeftForeArm 0.151077 0.000000 8.280793
LeftHand -1.821182 -0.000000 2.867694
LeftHandThumb1 -26.253704 0.000000 33.147579
RightShoulder -7.963983 18.164724 -47.862417
RightArm 45.681652 47.686585 -5.675504
RightForeArm -42.141507 -0.000000 8.792574
RightHand -0.350219 -0.000000 -16.978910
RightHandThumb1 -24.326973 -0.000000 -32.862282
LeftUpLeg 12.081717 2.257662 -18.432170
LeftLeg -1.379274 -0.000000 0.000000
LeftFoot -34.263803 19.189712 -15.357065
LeftToeBase 18.149754 -0.000000 -0.000000
RightUpLeg -18.693675 12.246933 20.720088
RightLeg -3.588640 -0.000000 0.000000
RightFoot -1.509268 -32.849828 -2.659017
RightToeBase 14.472911 -0.000000 -0.000000
795
root 19.440915 32.671623 -17.679316 -171.652738 3.812969 -178.886502
Spine -20.491680 7.858728 -4.282932
Head 12.054480 -5.297179 -6.484642
LeftShoulder -13.017069 -29.790783 -4.838444
LeftArm -42.282795 -7.772165 -48.701210
LeftForeArm 0.147644 -0.000000 8.246721
LeftHand -1.790257 -0.000000 2.810164
LeftHandThumb1 -26.253704 0.000000 33.147579
RightShoulder -7.960898 18.145188 -47.858312
RightArm 45.782742 47.642569 -5.661627
RightForeArm -42.241269 -0.000000 8.781497
RightHand -0.314946 -0.000000 -16.897035
RightHandThumb1 -24.326973 -0.000000 -32.862282
LeftUpLeg 12.076254 2.242393 -18.444376
LeftLeg -1.394159 -0.000000 0.000000
LeftFoot -34.237692 19.185204 -15.329949
LeftToeBase 18.149061 -0.000000 -0.000000
RightUpLeg -18.721284 12.222107 20.697896
RightLeg -3.591671 -0.000000 0.000000
RightFoot -1.499240 -32.844400 -2.678611
RightToeBase 14.509956 -0.000000 -0.000000
796
root 19.436202 32.672316 -17.673147 -171.644051 3.790672 -178.897395
Spine -20.486327 7.865055 -4.242264
Head 12.065923 -5.263310 -6.462532
LeftShoulder -13.041900 -29.744037 -4.830535
LeftArm -42.246907 -7.808975 -48.730501
LeftForeArm 0.148430 -0.000000 8.213136
LeftHand -1.770914 -0.000000 2.808947
LeftHandThumb1 -26.253704 0.000000 33.147579
RightShoulder -7.955882 18.114105 -47.842403
RightArm 45.845884 47.589085 -5.698826
RightForeArm -42.283263 -0.000000 8.780136
RightHand -0.431868 -0.000000 -16.876184
RightHandThumb1 -24.326973 -0.000000 -32.862282
LeftUpLeg 12.069081 2.234523 -18.455111
LeftLeg -1.411634 -0.000000 0.000000
LeftFoot -34.208755 19.178059 -15.326901
LeftToeBase 18.198456 -0.000000 -0.000000
RightUpLeg -18.745328 12.210550 20.678825
RightLeg -3.596684 -0.000000 0.000000
RightFoot -1.466828 -32.824536 -2.757914
RightToeBase 14.668603 -0.000000 -0.000000
797
root 19.432064 32.673748 -17.667400 -171.631471 3.765059 -178.898944
Spine -20.481892 7.871698 -4.186722
Head 12.073147 -5.222505 -6.436037
LeftShoulder -13.100435 -29.703004 -4.816430
LeftArm -42.159618 -7.822550 -48.760715
LeftForeArm 0.160600 -0.000000 8.107264
LeftHand -1.717950 -0.000000 2.803193
LeftHandThumb1 -26.253704 0.000000 33.147579
RightShoulder -7.972831 18.080279 -47.842959
RightArm 45.964585 47.588128 -5.648044
RightForeArm -42.321773 -0.000000 8.799557
RightHand -0.309183 -0.000000 -16.723662
RightHandThumb1 -24.326973 -0.000000 -32.862282
LeftUpLeg 12.054945 2.244553 -18.451140
LeftLeg -1.419828 -0.000000 0.000000
LeftFoot -34.186785 19.154725 -15.304460
LeftToeBase 18.216186 -0.000000 -0.000000
RightUpLeg -18.774703 12.178635 20.671575
RightLeg -3.593757 -0.000000 0.000000
RightFoot -1.460669 -32.824082 -2.703474
RightToeBase 14.515913 -0.000000 -0.000000
798
root 19.427372 32.674020 -17.662735 -171.628229 3.750635 -178.906729
Spine -20.477067 7.901453 -4.144296
Head 12.070339 -5.219485 -6.402074
LeftShoulder -13.109131 -29.690312 -4.815176
LeftArm -42.154395 -7.827529 -48.776984
LeftForeArm 0.207324 -0.000000 8.071815
LeftHand -1.748490 0.000000 2.930427
LeftHandThumb1 -26.253704 0.000000 33.147579
RightShoulder -7.965558 18.091295 -47.840888
RightArm 45.993637 47.506575 -5.692383
RightForeArm -42.304271 -0.000000 8.811108
RightHand -0.217417 -0.000000 -16.690769
RightHandThumb1 -24.326973 -0.000000 -32.862282
LeftUpLeg 12.056290 2.240023 -18.460952
LeftLeg -1.438733 -0.000000 0.000000
LeftFoot -34.170882 19.146570 -15.294358
LeftToeBase 18.187723 -0.000000 -0.000000
RightUpLeg -18.793361 12.161472 20.662356
RightLeg -3.588487 -0.000000 0.000000
RightFoot -1.460602 -32.819349 -2.728815
RightToeBase 14.537875 -0.000000 -0.000000
799
root 19.422752 32.674380 -17.657853 -171.627178 3.738426 -178.913003
Spine -20.464420 7.933541 -4.094670
Head 12.069443 -5.236417 -6.406317
LeftShoulder -13.126034 -29.680494 -4.818593
LeftArm -42.152082 -7.880144 -48.756565
LeftForeArm 0.289916 0.000000 8.051387
LeftHand -1.710512 -0.000000 2.996780
LeftHandThumb1 -26.253704 0.000000 33.147579
RightShoulder -7.964028 18.083264 -47.850165
RightArm 46.024473 47.451748 -5.719148
RightForeArm -42.339529 -0.000000 8.814411
RightHand -0.149579 0.000000 -16.664446
RightHandThumb1 -24.326973 -0.000000 -32.862282
LeftUpLeg 12.057893 2.250779 -18.466166
LeftLeg -1.454517 -0.000000 0.000000
LeftFoot -34.137923 19.109479 -15.283637
LeftToeBase 18.142595 -0.000000 -0.000000
RightUpLeg -18.807726 12.132067 20.657385
RightLeg -3.585204 -0.000000 0.000000
RightFoot -1.461663 -32.812395 -2.747141
RightToeBase 14.533793 -0.000000 -0.000000
